{
  "accessors": [
    {
      "bufferView": 2,
      "componentType": 5126,
      "count": 640,
      "max": [
        516.6944580078125,
        516.6944580078125,
        93.44023895263672
      ],
      "min": [
        -516.6944580078125,
        -516.6944580078125,
        77.60755920410156
      ],
      "type": "VEC3"
    },
    {
      "bufferView": 2,
      "byteOffset": 7680,
      "componentType": 5126,
      "count": 640,
      "max": [
        0.7769602537155151,
        0.7769467830657959,
        0.9537521600723267
      ],
      "min": [
        -0.7769602537155151,
        -0.7769467830657959,
        -0.9537529945373535
      ],
      "type": "VEC3"
    },
    {
      "bufferView": 1,
      "componentType": 5126,
      "count": 640,
      "max": [
        0.8964130282402039,
        0.8964130282402039
      ],
      "min": [
        0.6035869717597961,
        0.6035869717597961
      ],
      "type": "VEC2"
    },
    {
      "bufferView": 0,
      "componentType": 5125,
      "count": 2688,
      "type": "SCALAR"
    },
    {
      "bufferView": 2,
      "byteOffset": 15360,
      "componentType": 5126,
      "count": 1152,
      "max": [
        382.46435546875,
        382.46441650390625,
        -196.34950256347656
      ],
      "min": [
        -382.46441650390625,
        -382.46441650390625,
        -332.3494873046875
      ],
      "type": "VEC3"
    },
    {
      "bufferView": 2,
      "byteOffset": 29184,
      "componentType": 5126,
      "count": 1152,
      "max": [
        0.7821457386016846,
        0.782143771648407,
        -0.6230858564376831
      ],
      "min": [
        -0.7821424603462219,
        -0.7821395397186279,
        -0.9998382329940796
      ],
      "type": "VEC3"
    },
    {
      "bufferView": 1,
      "byteOffset": 5120,
      "componentType": 5126,
      "count": 1152,
      "max": [
        0.38841521739959717,
        0.8884151577949524
      ],
      "min": [
        0.11158482730388641,
        0.6115848422050476
      ],
      "type": "VEC2"
    },
    {
      "bufferView": 0,
      "byteOffset": 10752,
      "componentType": 5125,
      "count": 6714,
      "type": "SCALAR"
    },
    {
      "bufferView": 2,
      "byteOffset": 43008,
      "componentType": 5126,
      "count": 4632,
      "max": [
        760.4307250976563,
        760.4307250976563,
        120.99999237060547
      ],
      "min": [
        -760.4307250976563,
        -760.4307250976563,
        -196.44949340820313
      ],
      "type": "VEC3"
    },
    {
      "bufferView": 2,
      "byteOffset": 98592,
      "componentType": 5126,
      "count": 4632,
      "max": [
        1.0,
        1.0,
        1.0
      ],
      "min": [
        -1.0,
        -1.0,
        -0.9980168342590332
      ],
      "type": "VEC3"
    },
    {
      "bufferView": 1,
      "byteOffset": 14336,
      "componentType": 5126,
      "count": 4632,
      "max": [
        1.0,
        0.9996988773345947
      ],
      "min": [
        0.0,
        0.0
      ],
      "type": "VEC2"
    },
    {
      "bufferView": 0,
      "byteOffset": 37608,
      "componentType": 5125,
      "count": 18648,
      "type": "SCALAR"
    },
    {
      "bufferView": 2,
      "byteOffset": 154176,
      "componentType": 5126,
      "count": 384,
      "max": [
        170.2740936279297,
        170.2740936279297,
        115.39999389648438
      ],
      "min": [
        -170.2740936279297,
        -170.2740936279297,
        99.59999084472656
      ],
      "type": "VEC3"
    },
    {
      "bufferView": 2,
      "byteOffset": 158784,
      "componentType": 5126,
      "count": 384,
      "max": [
        1.0,
        1.0,
        0.9999948740005493
      ],
      "min": [
        -1.0,
        -1.0,
        -0.0
      ],
      "type": "VEC3"
    },
    {
      "bufferView": 1,
      "byteOffset": 51392,
      "componentType": 5126,
      "count": 384,
      "max": [
        0.8284091353416443,
        0.8284091353416443
      ],
      "min": [
        0.6715908646583557,
        0.6715908646583557
      ],
      "type": "VEC2"
    },
    {
      "bufferView": 0,
      "byteOffset": 112200,
      "componentType": 5125,
      "count": 1722,
      "type": "SCALAR"
    },
    {
      "bufferView": 2,
      "byteOffset": 163392,
      "componentType": 5126,
      "count": 4800,
      "max": [
        515.4000244140625,
        515.4000244140625,
        94.0999984741211
      ],
      "min": [
        -515.4000244140625,
        -515.4000244140625,
        77.5
      ],
      "type": "VEC3"
    },
    {
      "bufferView": 2,
      "byteOffset": 220992,
      "componentType": 5126,
      "count": 4800,
      "max": [
        1.0,
        1.0,
        1.0
      ],
      "min": [
        -1.0,
        -1.0,
        -1.0
      ],
      "type": "VEC3"
    },
    {
      "bufferView": 1,
      "byteOffset": 54464,
      "componentType": 5126,
      "count": 4800,
      "max": [
        1.0,
        1.0
      ],
      "min": [
        0.0,
        0.0
      ],
      "type": "VEC2"
    },
    {
      "bufferView": 0,
      "byteOffset": 119088,
      "componentType": 5125,
      "count": 7200,
      "type": "SCALAR"
    },
    {
      "bufferView": 2,
      "byteOffset": 278592,
      "componentType": 5126,
      "count": 2592,
      "max": [
        762.5667114257813,
        762.5667114257813,
        -49.0
      ],
      "min": [
        -762.5667114257813,
        -762.5667114257813,
        -58.999996185302734
      ],
      "type": "VEC3"
    },
    {
      "bufferView": 2,
      "byteOffset": 309696,
      "componentType": 5126,
      "count": 2592,
      "max": [
        1.0,
        1.0,
        1.0
      ],
      "min": [
        -1.0,
        -1.0,
        -1.0
      ],
      "type": "VEC3"
    },
    {
      "bufferView": 1,
      "byteOffset": 92864,
      "componentType": 5126,
      "count": 2592,
      "max": [
        1.0,
        1.0
      ],
      "min": [
        0.0,
        0.0
      ],
      "type": "VEC2"
    },
    {
      "bufferView": 0,
      "byteOffset": 147888,
      "componentType": 5125,
      "count": 7344,
      "type": "SCALAR"
    },
    {
      "bufferView": 2,
      "byteOffset": 340800,
      "componentType": 5126,
      "count": 2592,
      "max": [
        769.4400024414063,
        769.4400024414063,
        -49.98999786376953
      ],
      "min": [
        -769.4400024414063,
        -769.4400024414063,
        -58.00999450683594
      ],
      "type": "VEC3"
    },
    {
      "bufferView": 2,
      "byteOffset": 371904,
      "componentType": 5126,
      "count": 2592,
      "max": [
        1.0,
        1.0,
        1.0
      ],
      "min": [
        -1.0,
        -1.0,
        -1.0
      ],
      "type": "VEC3"
    },
    {
      "bufferView": 1,
      "byteOffset": 113600,
      "componentType": 5126,
      "count": 2592,
      "max": [
        1.0,
        0.6661815643310547
      ],
      "min": [
        0.0,
        0.3338184356689453
      ],
      "type": "VEC2"
    },
    {
      "bufferView": 0,
      "byteOffset": 177264,
      "componentType": 5125,
      "count": 6192,
      "type": "SCALAR"
    },
    {
      "bufferView": 2,
      "byteOffset": 403008,
      "componentType": 5126,
      "count": 1125,
      "max": [
        691.95068359375,
        722.0277099609375,
        53.89242935180664
      ],
      "min": [
        -690.9903564453125,
        -603.5142211914063,
        -33.04706954956055
      ],
      "type": "VEC3"
    },
    {
      "bufferView": 2,
      "byteOffset": 416508,
      "componentType": 5126,
      "count": 1125,
      "max": [
        0.9880799055099487,
        0.9919946789741516,
        0.9614039063453674
      ],
      "min": [
        -0.983963131904602,
        -0.9748404622077942,
        -0.9614014625549316
      ],
      "type": "VEC3"
    },
    {
      "bufferView": 1,
      "byteOffset": 134336,
      "componentType": 5126,
      "count": 1125,
      "max": [
        1.0000004768371582,
        0.6182122230529785
      ],
      "min": [
        -4.76837158203125e-07,
        0.46565163135528564
      ],
      "type": "VEC2"
    },
    {
      "bufferView": 0,
      "byteOffset": 202032,
      "componentType": 5125,
      "count": 4320,
      "type": "SCALAR"
    },
    {
      "bufferView": 2,
      "byteOffset": 430008,
      "componentType": 5126,
      "count": 1370,
      "max": [
        688.4422607421875,
        718.57470703125,
        61.55609893798828
      ],
      "min": [
        -687.5025024414063,
        -599.8740234375,
        -57.95930480957031
      ],
      "type": "VEC3"
    },
    {
      "bufferView": 2,
      "byteOffset": 446448,
      "componentType": 5126,
      "count": 1370,
      "max": [
        0.9994979500770569,
        0.9976108074188232,
        0.9949389696121216
      ],
      "min": [
        -0.9994978904724121,
        -0.997610867023468,
        -0.6124714016914368
      ],
      "type": "VEC3"
    },
    {
      "bufferView": 1,
      "byteOffset": 143336,
      "componentType": 5126,
      "count": 1370,
      "max": [
        1.0000004768371582,
        1.0
      ],
      "min": [
        -9.5367431640625e-07,
        0.2989850640296936
      ],
      "type": "VEC2"
    },
    {
      "bufferView": 0,
      "byteOffset": 219312,
      "componentType": 5125,
      "count": 5400,
      "type": "SCALAR"
    }
  ],
  "asset": {
    "extras": {
      "author": "boriscargo (https://sketchfab.com/boriscargo)",
      "license": "CC-BY-4.0 (http://creativecommons.org/licenses/by/4.0/)",
      "source": "https://sketchfab.com/3d-models/ufo-flying-saucer-91713b0bff414b478660c28064e3021a",
      "title": "ufo flying saucer"
    },
    "generator": "Sketchfab-16.7.0",
    "version": "2.0"
  },
  "bufferViews": [
    {
      "buffer": 0,
      "byteLength": 240912,
      "name": "floatBufferViews",
      "target": 34963
    },
    {
      "buffer": 0,
      "byteLength": 154296,
      "byteOffset": 240912,
      "byteStride": 8,
      "name": "floatBufferViews",
      "target": 34962
    },
    {
      "buffer": 0,
      "byteLength": 462888,
      "byteOffset": 395208,
      "byteStride": 12,
      "name": "floatBufferViews",
      "target": 34962
    }
  ],
  "buffers": [
    {
      "byteLength": 858096,
      "uri": "scene.bin"
    }
  ],
  "extensionsUsed": [
    "KHR_materials_specular",
    "KHR_materials_emissive_strength"
  ],
  "materials": [
    {
      "doubleSided": true,
      "name": "gris",
      "pbrMetallicRoughness": {
        "baseColorFactor": [
          0.121452,
          0.121452,
          0.121452,
          1.0
        ],
        "metallicFactor": 0.0,
        "roughnessFactor": 0.552786
      }
    },
    {
      "doubleSided": true,
      "name": "material",
      "pbrMetallicRoughness": {
        "baseColorFactor": [
          0.24072542835365854,
          0.24072542835365854,
          0.24072542835365854,
          1.0
        ],
        "metallicFactor": 0.6692073170731707,
        "roughnessFactor": 0.2606707317073171
      }
    },
    {
      "doubleSided": true,
      "extensions": {
        "KHR_materials_specular": {
          "specularColorFactor": [
            1.0,
            1.0,
            1.0
          ],
          "specularFactor": 0.5533536585365854
        }
      },
      "name": "inox",
      "pbrMetallicRoughness": {
        "roughnessFactor": 0.18140243902439024
      }
    },
    {
      "doubleSided": true,
      "emissiveFactor": [
        0.016379,
        0.41080699999999953,
        1.0
      ],
      "name": "lumiere",
      "pbrMetallicRoughness": {
        "metallicFactor": 0.0,
        "roughnessFactor": 0.552786
      }
    },
    {
      "doubleSided": true,
      "name": "material_4",
      "pbrMetallicRoughness": {
        "metallicFactor": 0.0,
        "roughnessFactor": 0.552786
      }
    },
    {
      "doubleSided": true,
      "emissiveFactor": [
        0.12130164635811866,
        0.303802283687156,
        0.8928293248917687
      ],
      "extensions": {
        "KHR_materials_emissive_strength": {
          "emissiveStrength": 3.521341463414634
        }
      },
      "name": "PLots",
      "pbrMetallicRoughness": {
        "baseColorFactor": [
          0.315905,
          0.506007,
          1.0,
          1.0
        ],
        "metallicFactor": 0.0,
        "roughnessFactor": 0.270968
      }
    }
  ],
  "meshes": [
    {
      "name": "Object_0",
      "primitives": [
        {
          "attributes": {
            "NORMAL": 1,
            "POSITION": 0,
            "TEXCOORD_0": 2
          },
          "indices": 3,
          "material": 0,
          "mode": 4
        }
      ]
    },
    {
      "name": "Object_1",
      "primitives": [
        {
          "attributes": {
            "NORMAL": 5,
            "POSITION": 4,
            "TEXCOORD_0": 6
          },
          "indices": 7,
          "material": 1,
          "mode": 4
        }
      ]
    },
    {
      "name": "Object_2",
      "primitives": [
        {
          "attributes": {
            "NORMAL": 9,
            "POSITION": 8,
            "TEXCOORD_0": 10
          },
          "indices": 11,
          "material": 2,
          "mode": 4
        }
      ]
    },
    {
      "name": "Object_3",
      "primitives": [
        {
          "attributes": {
            "NORMAL": 13,
            "POSITION": 12,
            "TEXCOORD_0": 14
          },
          "indices": 15,
          "material": 3,
          "mode": 4
        }
      ]
    },
    {
      "name": "Object_4",
      "primitives": [
        {
          "attributes": {
            "NORMAL": 17,
            "POSITION": 16,
            "TEXCOORD_0": 18
          },
          "indices": 19,
          "material": 2,
          "mode": 4
        }
      ]
    },
    {
      "name": "Object_5",
      "primitives": [
        {
          "attributes": {
            "NORMAL": 21,
            "POSITION": 20,
            "TEXCOORD_0": 22
          },
          "indices": 23,
          "material": 2,
          "mode": 4
        }
      ]
    },
    {
      "name": "Object_6",
      "primitives": [
        {
          "attributes": {
            "NORMAL": 25,
            "POSITION": 24,
            "TEXCOORD_0": 26
          },
          "indices": 27,
          "material": 4,
          "mode": 4
        }
      ]
    },
    {
      "name": "Object_7",
      "primitives": [
        {
          "attributes": {
            "NORMAL": 29,
            "POSITION": 28,
            "TEXCOORD_0": 30
          },
          "indices": 31,
          "material": 2,
          "mode": 4
        }
      ]
    },
    {
      "name": "Object_8",
      "primitives": [
        {
          "attributes": {
            "NORMAL": 33,
            "POSITION": 32,
            "TEXCOORD_0": 34
          },
          "indices": 35,
          "material": 5,
          "mode": 4
        }
      ]
    }
  ],
  "nodes": [
    {
      "children": [
        1
      ],
      "matrix": [
        1.0,
        0.0,
        0.0,
        0.0,
        0.0,
        2.220446049250313e-16,
        -1.0,
        0.0,
        0.0,
        1.0,
        2.220446049250313e-16,
        0.0,
        0.0,
        0.0,
        0.0,
        1.0
      ],
      "name": "Sketchfab_model"
    },
    {
      "children": [
        2
      ],
      "name": "root"
    },
    {
      "children": [
        3
      ],
      "matrix": [
        1.0,
        0.0,
        0.0,
        0.0,
        0.0,
        2.220446049250313e-16,
        1.0,
        0.0,
        0.0,
        -1.0,
        2.220446049250313e-16,
        0.0,
        0.0,
        0.0,
        0.0,
        1.0
      ],
      "name": "GLTF_SceneRootNode"
    },
    {
      "children": [
        4,
        9,
        11,
        14
      ],
      "matrix": [
        0.03564999997615814,
        0.0,
        0.0,
        0.0,
        0.0,
        -6.010140696588021e-09,
        0.035649999976157636,
        0.0,
        0.0,
        -0.035649999976157636,
        -6.010140696588021e-09,
        0.0,
        0.0,
        0.0,
        0.0,
        1.0
      ],
      "name": "UFO_6"
    },
    {
      "children": [
        5,
        6,
        7,
        8
      ],
      "name": "body_2"
    },
    {
      "mesh": 0,
      "name": "Object_5"
    },
    {
      "mesh": 1,
      "name": "Object_6"
    },
    {
      "mesh": 2,
      "name": "Object_7"
    },
    {
      "mesh": 3,
      "name": "Object_8"
    },
    {
      "children": [
        10
      ],
      "name": "grid_3"
    },
    {
      "mesh": 4,
      "name": "Object_10"
    },
    {
      "children": [
        12,
        13
      ],
      "name": "lum_4"
    },
    {
      "mesh": 5,
      "name": "Object_12"
    },
    {
      "mesh": 6,
      "name": "Object_13"
    },
    {
      "children": [
        15,
        16
      ],
      "name": "plot_5"
    },
    {
      "mesh": 7,
      "name": "Object_15"
    },
    {
      "mesh": 8,
      "name": "Object_16"
    }
  ],
  "scene": 0,
  "scenes": [
    {
      "name": "Sketchfab_Scene",
      "nodes": [
        0
      ]
    }
  ]
}
