<?xml version="1.0" encoding="UTF-8" standalone="no"?><!DOCTYPE svg PUBLIC "-//W3C//DTD SVG 1.1//EN" "http://www.w3.org/Graphics/SVG/1.1/DTD/svg11.dtd"><svg width="100%" height="100%" viewBox="0 0 699 1035" version="1.1" xmlns="http://www.w3.org/2000/svg" xmlns:xlink="http://www.w3.org/1999/xlink" xml:space="preserve" xmlns:serif="http://www.serif.com/" style="fill-rule:evenodd;clip-rule:evenodd;stroke-linejoin:round;stroke-miterlimit:2;"><rect id="Prancheta2" x="-0" y="0" width="699" height="1035" style="fill:none;"/><g><g><path d="M62.191,826.194c-3.94,-3.21 -2.56,-8 4.21,-14.59c5.5,-5.35 12.4,-8.8 21.41,-10.69c6.67,-1.39 7.43,-1.35 17.98,1.1c14.59,3.39 19.46,2.95 32.24,-2.94c13.82,-6.36 16.63,-7.11 26.77,-7.14c7.36,-0.03 9.96,0.4 14.26,2.34c6.94,3.12 7.8,5.91 3.27,10.58c-3.59,3.7 -7.37,4.95 -20.03,6.61c-11.47,1.5 -18.71,3.4 -28.59,7.49c-9.27,3.83 -13.08,4.16 -21.13,1.82c-5.36,-1.55 -5.6,-1.54 -8.15,0.51c-4.5,3.62 -6.67,4.13 -12.58,2.94c-4.63,-0.93 -6.21,-0.83 -10.26,0.67c-6.28,2.32 -17.24,3.06 -19.4,1.3Zm174.87,-3.84c-18.52,-3.12 -38.58,-15.55 -44.17,-27.37c-1.37,-2.9 -3.08,-5.74 -3.79,-6.3c-0.72,-0.56 -5.51,-2.05 -10.66,-3.3c-12.49,-3.04 -23.61,-8.62 -42.36,-21.26c-18.75,-12.65 -25.41,-15.32 -35.62,-14.3c-13.68,1.37 -14.43,1.3 -16.02,-1.51c-0.9,-1.6 -1.19,-3.59 -0.77,-5.27c1.05,-4.18 7.09,-10.17 12.89,-12.79c4.51,-2.04 6.71,-2.36 15.74,-2.28c18.29,0.17 28.92,5.36 51.17,24.99c17.48,15.42 18.7,15.92 37.22,15.08c7.21,-0.33 15.54,-0.9 18.5,-1.27l5.4,-0.67l-0.69,2.89c-3.51,14.8 -0.34,22.54 11.39,27.81c9.74,4.37 20.08,6.09 27.96,4.66c11.17,-2.02 20.22,-5.08 28.81,-9.73l8.27,-4.47l2.98,2.13c3.97,2.83 4.99,4.95 4.99,10.45c0,3.96 -0.54,5.18 -4.03,8.95c-4.67,5.07 -15.12,10.87 -23.52,13.06c-6.39,1.67 -34.83,1.99 -43.69,0.5Zm271.79,-8.54c-25.48,-5.04 -43.1,-10.43 -44.07,-13.49c-0.33,-1.06 -0.35,-2.34 -0.04,-2.85c0.82,-1.32 15.99,-4.71 30.06,-6.72l12,-1.71l9.01,3.62c4.95,2 14.55,5.22 21.33,7.17c10.68,3.08 13.74,3.55 22.99,3.54c5.87,0 12.47,-0.54 14.67,-1.21c2.2,-0.66 9.4,-1.19 16,-1.18c12.2,0.03 16.5,1.05 16.5,3.91c0,2.45 -3.99,4.24 -17.64,7.93l-13.14,3.56l-27.86,-0.1c-25,-0.09 -29.09,-0.35 -39.81,-2.47Zm-136.21,-0.91c-3.94,-0.71 -9.56,-2.08 -12.5,-3.03c-14.48,-4.68 -26.07,-17.12 -24.37,-26.17c0.68,-3.64 6.61,-10.32 9.16,-10.32c0.86,0 5.46,2.61 10.23,5.8c19.34,12.93 35.73,15.78 55.02,9.55c6.54,-2.11 13.38,-8.04 15.56,-13.49c1.43,-3.57 1.49,-4.85 0.43,-9c-0.68,-2.65 -0.91,-5.16 -0.5,-5.56c0.41,-0.41 5.4,0.48 11.09,1.98c12.23,3.21 29,3.81 35.15,1.24c1.94,-0.81 9.91,-5.84 17.71,-11.17c16.01,-10.95 22.73,-14.35 34.12,-17.3c19.84,-5.13 37.65,-0.63 43.59,11.01c2.52,4.94 2.49,8.01 -0.1,11.31c-2.47,3.13 -5.56,3.36 -10.12,0.73c-9.27,-5.34 -19.37,-3.19 -44.39,9.45c-22.05,11.15 -27.37,13.03 -43.42,15.41l-12.5,1.85l-2.99,3.84c-10.46,13.46 -24.26,21.32 -42.65,24.3c-8.61,1.4 -29.74,1.16 -38.52,-0.43Zm-133.97,-35.01c-1.03,-2.67 1.8,-11.57 5.01,-15.78c5.78,-7.59 38.77,-28.58 56.29,-35.82c12.32,-5.1 13.29,-5.94 10.21,-8.81c-1.27,-1.18 -4.49,-2.8 -7.15,-3.59c-8.44,-2.51 -14.6,-0.13 -25.92,10.02c-7.1,6.35 -24.96,19.07 -35.57,25.33c-9.66,5.69 -22.91,8.04 -34.74,6.15c-7.07,-1.12 -10.77,-3.16 -8.96,-4.92c0.53,-0.51 11.76,-6.36 24.96,-12.99c13.2,-6.64 35.25,-17.92 49,-25.07c13.75,-7.15 25.7,-13 26.56,-13.01c1.89,-0.02 34.89,24.68 35.66,26.7c0.8,2.09 -0.9,3.33 -14.22,10.33c-6.6,3.47 -21.23,11.48 -32.5,17.79c-33.7,18.86 -45.42,25.16 -46.77,25.16c-0.71,0 -1.55,-0.67 -1.86,-1.49Zm138.59,-27.15c-15.1,-10.85 -32.63,-23.34 -38.96,-27.77c-13.01,-9.09 -44.95,-33.01 -55.5,-41.54c-42.74,-34.6 -77.17,-63.29 -80.5,-67.08c-0.27,-0.31 -7.7,-6.82 -16.5,-14.47c-36.74,-31.93 -84.81,-76.74 -112.23,-104.61c-19.19,-19.5 -26.83,-31.48 -34.06,-53.39c-5.57,-16.89 -6.68,-24.26 -6.64,-44c0.05,-26.38 1.63,-31.69 7.28,-24.4c4.2,5.42 37.65,45.39 47.59,56.86c48.38,55.84 106.7,114.8 176.45,178.39c19.25,17.55 43.51,36.65 72.61,57.16c7.7,5.43 27.73,19.6 44.5,31.49c31.26,22.17 50.4,35.55 64.49,45.1c4.39,2.98 8.15,6.27 8.35,7.31c0.35,1.8 -0.16,1.87 -9.49,1.26c-21.48,-1.4 -34.35,-6.98 -53.35,-23.14c-47,-39.98 -48.35,-41.01 -68.77,-52.53c-11.89,-6.7 -18.48,-11.78 -51.96,-40.02c-20.08,-16.94 -31.64,-26.26 -45.27,-36.5c-7.61,-5.72 -15.84,-12.84 -41.39,-35.84c-10.3,-9.27 -18.96,-16.62 -19.25,-16.34c-1.22,1.23 2.7,5.46 24.32,26.22c24.58,23.6 34.84,33.8 45.82,45.55c4.46,4.77 10.82,10 17.5,14.38c7.21,4.73 14.89,11.15 24.5,20.48c13.66,13.26 20.55,18.46 42.5,32.1c10.29,6.4 18.42,12.69 31,24.02c15.93,14.33 22.02,19.18 34.05,27.09c6.35,4.17 13.43,9.73 15.73,12.35c7.98,9.07 11.6,20.6 6.68,21.3c-1.33,0.19 -11.47,-6.49 -29.5,-19.43Zm-2.17,-60.67c-3.25,-2.65 -5.29,-5.1 -5.29,-6.35c0,-1.54 8.04,-7.8 32.5,-25.31c35.65,-25.52 37.41,-26.87 50.5,-38.59c4.95,-4.43 16.88,-14.37 26.5,-22.08c20.94,-16.79 34,-28.32 51.73,-45.73c7.28,-7.15 13.76,-13.31 14.4,-13.71c0.64,-0.39 6.26,-5.8 12.5,-12c11.11,-11.06 14.07,-15.2 6.62,-9.27c-6.24,4.98 -34.48,26.44 -43.39,32.98c-4.6,3.38 -12.93,10.47 -18.52,15.77c-21.77,20.64 -37.7,33.66 -57.56,47.02c-7.85,5.29 -17.43,12.35 -21.28,15.71c-3.85,3.35 -12.17,9.57 -18.5,13.81c-6.33,4.25 -15.72,10.95 -20.87,14.9c-10.14,7.76 -25.07,17.16 -27.27,17.16c-2.47,0 -12.86,-8.07 -12.86,-10c0,-1.24 5.22,-5.44 16.25,-13.07c39.35,-27.2 84.59,-62.8 126.25,-99.33c30.64,-26.88 39.9,-35.64 78.23,-74.1c39.04,-39.16 52.27,-53.34 80.22,-86c8.95,-10.45 16.89,-19.15 17.66,-19.32c2.36,-0.55 3.44,4.58 4.06,19.23c1.43,33.96 -7.46,60.89 -31.21,94.59c-5.59,7.94 -18.07,21.79 -28,31.08c-5.98,5.6 -33.34,28.04 -66.96,54.92c-9.9,7.92 -22.95,18.49 -29,23.51c-54.48,45.14 -124.54,98.49 -129.35,98.49c-1.14,0 -4.45,-1.94 -7.36,-4.31Zm-39.54,-72.57c-2.89,-1 -6.04,-2.48 -7,-3.29c-9.53,-8.06 -32.91,-26.71 -51.25,-40.87c-12.38,-9.55 -26.55,-20.75 -31.5,-24.89c-22.82,-19.09 -48.12,-47.08 -53.94,-59.66c-6.68,-14.47 -11.55,-31.2 -15.12,-52c-2.54,-14.78 -2.73,-17.9 -2.71,-43.91c0.03,-38.46 2.65,-56.45 11.6,-79.61c5.54,-14.34 8.51,-19.85 16.32,-30.26c20.65,-27.5 58.32,-50.87 95.51,-59.25c31.48,-7.1 58.14,-7.04 90.47,0.18c46.23,10.33 85.71,36.62 105.77,70.46c13.16,22.19 17.76,40.25 19.73,77.48c1.62,30.72 0.25,56.01 -4.05,74.74c-4.09,17.82 -15.11,43 -24.63,56.26c-8.9,12.4 -14.57,18.56 -33.45,36.33c-31.98,30.09 -46.98,42.43 -80.5,66.23c-20.03,14.22 -24.54,15.76 -35.25,12.06Zm23.6,-63.01c0.74,-0.47 1.19,-1.7 0.99,-2.73c-0.3,-1.57 -1.59,-1.98 -7.85,-2.5c-14.71,-1.22 -23.65,-0.99 -24.99,0.62c-0.98,1.18 -0.99,1.81 -0.03,2.97c0.9,1.08 4.03,1.55 11.88,1.78c5.86,0.18 12.45,0.41 14.65,0.52c2.2,0.11 4.61,-0.19 5.35,-0.66Zm-11.35,-34.19c0,-1.75 -0.55,-2.42 -1.99,-2.42c-2.34,0 -3.34,3.36 -1.36,4.61c2.07,1.31 3.35,0.47 3.35,-2.19Zm-7.5,-0.42c0,-1.81 -0.54,-2.5 -1.94,-2.5c-1.07,0 -2.23,0.47 -2.59,1.05c-1.07,1.73 0.33,3.95 2.5,3.95c1.5,0 2.03,-0.65 2.03,-2.5Zm-17.54,-38.43c0.89,-1.44 -6.24,-21.6 -10.98,-31.07c-5.12,-10.21 -11.53,-19.12 -20.4,-28.35c-24.61,-25.63 -55.3,-38.38 -90.08,-37.46c-11,0.3 -11.51,0.41 -11.81,2.52c-0.43,3 6.13,19.14 11.06,27.23c9.87,16.17 25.32,32.67 40.26,43.01c15.7,10.84 37.25,19.72 55.96,23.05c10.99,1.96 25.08,2.54 25.99,1.07Zm65.54,-0.61c14.31,-2.31 28.16,-6.79 41.5,-13.43c29.32,-14.58 52.65,-39.65 65.32,-70.21c4.59,-11.08 4.85,-10.54 -5.82,-12.35c-4.57,-0.77 -28.05,1.99 -38.08,4.49c-31.18,7.76 -60.66,31.87 -75.32,61.6c-4.47,9.07 -10.6,25.69 -10.6,28.75c0,0.84 0.56,1.75 1.25,2.03c2.52,1.02 12.5,0.61 21.75,-0.88Z" style="fill-rule:nonzero;"/></g></g></svg>