<?xml version="1.0" encoding="UTF-8" standalone="no"?><!DOCTYPE svg PUBLIC "-//W3C//DTD SVG 1.1//EN" "http://www.w3.org/Graphics/SVG/1.1/DTD/svg11.dtd"><svg width="100%" height="100%" viewBox="0 0 699 1035" version="1.1" xmlns="http://www.w3.org/2000/svg" xmlns:xlink="http://www.w3.org/1999/xlink" xml:space="preserve" xmlns:serif="http://www.serif.com/" style="fill-rule:evenodd;clip-rule:evenodd;stroke-linejoin:round;stroke-miterlimit:2;"><rect id="Prancheta2" x="0" y="0" width="699" height="1035" style="fill:none;"/><g><g><path d="M32.901,1014.844c-1.9,-1.9 -1.3,-3.21 3.13,-6.91c5.63,-4.7 5.77,-6.13 5.77,-60.55c0,-27.22 -0.36,-51.21 -0.81,-53.31c-0.44,-2.1 -2.38,-5.56 -4.33,-7.71c-1.95,-2.16 -3.37,-4.69 -3.18,-5.67c0.36,-1.85 17.05,-12.07 19.96,-12.22c0.9,-0.05 3.9,1.94 6.65,4.41c2.75,2.47 5.46,4.5 6.02,4.5c0.56,0 5.29,-2.07 10.52,-4.6c11.36,-5.49 13.45,-5.36 20.08,1.17c2.47,2.44 4.68,4.43 4.9,4.43c0.23,0 5.22,-2.25 11.09,-5c5.88,-2.75 11.59,-5 12.69,-5c3.36,0 7.4,2.65 10.18,6.68c5.87,8.5 5.73,7.08 5.73,59.66c0,26.63 0.29,49.87 0.65,51.67c0.38,1.91 2.24,4.74 4.5,6.87c2.12,1.99 3.85,4.18 3.85,4.86c0,1.7 -6.35,6.14 -13.91,9.74l-6.27,2.97l-3.66,-2.11c-2.01,-1.16 -4.56,-3.62 -5.66,-5.47c-1.91,-3.22 -2.02,-5.64 -2.5,-55.37c-0.46,-47.92 -0.64,-52.21 -2.3,-54.65c-2.08,-3.07 -6.48,-5.16 -9.86,-4.68l-2.34,0.33l-0.3,48c-0.19,32.35 0.06,49.22 0.79,51.74c0.72,2.47 2.05,4.25 3.93,5.22c3.1,1.6 4.29,3.59 3.2,5.35c-1.21,1.96 -17.53,11.19 -19.79,11.19c-2.42,0 -7.71,-4.05 -9.6,-7.36c-0.91,-1.58 -1.36,-15.71 -1.73,-54.32c-0.49,-50.73 -0.56,-52.25 -2.56,-55c-1.14,-1.55 -3.79,-3.68 -5.9,-4.72c-7.37,-3.66 -7.01,-6.18 -7.3,50.84l-0.26,50.71l3.51,3.11c4.06,3.59 4.44,6.08 1.26,8.17c-2.14,1.4 -28.28,12.65 -32.53,14c-1.24,0.39 -2.63,0.02 -3.62,-0.97Zm118.6,0.34c-1.94,-1.94 -1.38,-4.76 1.17,-5.92c1.31,-0.6 3.45,-2.95 4.75,-5.23l2.38,-4.15l0.29,-56.63c0.27,-53.83 0.38,-56.71 2.16,-58.32c2.69,-2.44 37.59,-15.55 41.37,-15.54c5.59,0.01 11.56,5.5 15.77,14.49c1.66,3.56 1.87,6.68 1.89,28.19c0.02,25.97 -0.2,24.9 5.52,26.81c3.96,1.32 3.79,3.39 -0.5,6.27c-1.92,1.3 -3.81,3.12 -4.18,4.04c-1.09,2.71 -0.92,35.79 0.2,38.87c0.57,1.55 2.61,4.19 4.55,5.86c2.47,2.13 3.33,3.55 2.87,4.75c-0.98,2.56 -16.37,11 -20.16,11.06c-2.09,0.03 -4.15,-0.81 -5.85,-2.4c-5.24,-4.9 -5.43,-6.02 -5.45,-32.15c0,-13.37 -0.38,-24.89 -0.84,-25.6c-0.57,-0.91 -2.78,-1.21 -7.23,-1l-6.41,0.3l-0.27,20.85l-0.27,20.84l3.69,3.38c5.92,5.43 4.57,6.8 -14.29,14.61c-19.41,8.03 -19.67,8.11 -21.16,6.62Zm39.37,-75.44c8.03,-2.68 7.6,-1.18 7.25,-25.34c-0.28,-18.61 -0.56,-21.99 -2.08,-24.3c-2.06,-3.14 -5.94,-4.39 -9.63,-3.09l-2.61,0.92l-0.27,26.72c-0.29,29.85 -0.88,27.83 7.34,25.09Zm40.68,75.97c-2.29,-0.91 -1.29,-4.16 2.31,-7.56c2.2,-2.08 3.91,-4.87 4.48,-7.31c1.32,-5.71 1.23,-107.6 -0.1,-111.14c-0.58,-1.55 -2.15,-3.85 -3.5,-5.11c-4.39,-4.11 -3.76,-5.01 7.72,-11.04c9.06,-4.76 10.48,-4.62 16.44,1.6l4.26,4.44l9.44,-5.1c5.2,-2.81 10.63,-5.11 12.07,-5.11c3.6,0 9.92,5.93 13.07,12.26l2.56,5.13l0,27.65c0,31.68 0.88,28.82 -10.25,33.45c-3.72,1.55 -7.26,3.42 -7.88,4.17c-0.85,1.02 -0.46,3.22 1.62,9.1c5.63,15.88 13.3,27.32 20.99,31.28c6.64,3.41 7.59,5.19 4.53,8.45c-3.31,3.52 -15.56,9.51 -19.45,9.51c-1.75,0 -3.93,-0.56 -4.85,-1.25c-2.82,-2.1 -12.03,-21.53 -16.6,-35c-2.38,-7.01 -4.73,-12.75 -5.22,-12.75c-0.49,0 -0.89,6.3 -0.89,14l0,13.99l3.5,3.88c6.13,6.78 5.45,7.49 -15.31,16.15c-15.4,6.42 -17.17,7.01 -18.94,6.31Zm39.42,-69.27c7.39,-3.35 7.54,-3.96 7.16,-29.26c-0.36,-24.31 -0.94,-27.13 -6.04,-29.57c-2.25,-1.08 -3.29,-1.05 -6.24,0.19l-3.55,1.48l0,28.88c0,15.89 0.3,29.19 0.67,29.55c1.11,1.12 3.62,0.72 8,-1.27Zm119.58,69.27c-2.25,-0.89 -1.31,-4.41 1.89,-7.1c5.94,-5 5.86,-4.15 5.85,-62.95c0,-58.89 0.31,-55.63 -5.82,-61.34c-1.2,-1.11 -2.17,-2.66 -2.17,-3.45c0,-0.78 4.3,-3.96 9.56,-7.05c11.08,-6.52 12.79,-6.56 18.51,-0.37c1.99,2.16 4.15,3.93 4.8,3.93c0.64,0 5.2,-2.03 10.13,-4.5c4.93,-2.47 10.06,-4.5 11.4,-4.5c2.31,0 8.16,3.97 9.89,6.72c2.21,3.49 4.38,3.32 13.87,-1.07c5.14,-2.38 10.57,-4.63 12.08,-5.01c6,-1.48 12.77,4.03 16.47,13.43c1.55,3.94 1.8,10.08 2.27,55.8l0.52,51.37l4.39,3.78c2.81,2.42 4.19,4.32 3.83,5.28c-0.72,1.86 -18.01,11.7 -20.57,11.7c-2.77,0 -6.93,-3.65 -9.18,-8.05c-1.88,-3.69 -1.97,-6.07 -1.97,-51.36c0,-30.17 -0.39,-49.32 -1.08,-52.52c-1.4,-6.53 -5.54,-10.31 -10.81,-9.87l-3.61,0.3l-0.28,48c-0.15,26.4 0,49.11 0.33,50.47c0.33,1.36 2.38,4.11 4.55,6.12c2.66,2.46 3.74,4.17 3.32,5.27c-0.75,1.95 -17.59,11.64 -20.24,11.64c-1.01,0 -3.72,-1.73 -6.01,-3.85l-4.17,-3.84l-0.04,-8.41c-0.02,-4.62 -0.01,-23.93 0.01,-42.9c0.07,-53.21 -1,-60.04 -9.79,-62.85c-7.57,-2.43 -7.18,-5.18 -7.17,50.22c0.01,27.02 0.29,50.16 0.63,51.42c0.34,1.26 1.91,2.96 3.49,3.78c2.15,1.11 2.87,2.2 2.87,4.34c0,3.28 0.36,3.07 -19.5,11.39c-14.56,6.1 -16.46,6.73 -18.25,6.03Zm195.95,-0.53c-1.85,-1.85 -1.44,-3.6 1.28,-5.38c1.37,-0.89 3.51,-3.27 4.75,-5.27l2.27,-3.65l0.5,-57.22c0.44,-50.14 0.69,-57.4 2.07,-58.77c2.87,-2.88 38.03,-15.51 43.15,-15.51c3.22,0 9.54,5.26 13.01,10.85c2.14,3.43 2.33,5.24 3.27,30.61l1,26.96l3.34,0.68c1.84,0.38 3.87,1.22 4.5,1.86c1.19,1.21 0.69,1.76 -5.79,6.34l-2.55,1.79l0,19.52c0,12.09 0.41,20.29 1.08,21.54c0.6,1.11 2.51,3.31 4.25,4.88c2.61,2.35 2.98,3.17 2.09,4.66c-1.34,2.23 -17.22,11.3 -19.8,11.3c-1.04,0.01 -3.85,-1.96 -6.25,-4.36l-4.37,-4.37l-0.02,-25.38c0,-13.96 -0.38,-25.96 -0.83,-26.68c-0.58,-0.91 -2.89,-1.21 -7.74,-1l-6.91,0.3l-0.27,20.82l-0.27,20.81l3.52,3.12c4.11,3.64 4.45,6.09 1.14,8.26c-2.22,1.45 -28.6,12.49 -33.17,13.88c-1.12,0.34 -2.59,0.07 -3.25,-0.59Zm39.65,-75.42c3.11,-0.89 6.27,-2.12 7.03,-2.74c1.14,-0.9 1.3,-4.96 0.88,-22.12c-0.54,-22.34 -1.16,-25.47 -5.42,-27.41c-3.32,-1.51 -5.49,-1.39 -8.12,0.45c-2.2,1.54 -2.22,1.82 -2.22,27.5c0,18.14 0.33,25.94 1.1,25.94c0.6,0 3.64,-0.73 6.75,-1.62Zm-95.4,70.19c-3.76,-1.61 -8.09,-6.62 -10.86,-12.57c-2.01,-4.33 -2.11,-6.4 -2.59,-56.1l-0.5,-51.61l-3.83,-4.23c-3.73,-4.14 -3.78,-4.28 -2,-6.25c2.36,-2.6 15.28,-9.78 17.64,-9.8c1,0 4.3,2.34 7.34,5.22l5.52,5.22l4.17,-2.3c17.35,-9.63 18.09,-9.72 24.64,-3.17c7.83,7.83 8.52,10.25 8.52,29.85l0,17.32l-3.64,3.18c-2.01,1.74 -4.82,3.98 -6.26,4.97l-2.62,1.81l4.57,5.61c8.08,9.92 7.91,9.25 8.27,33.34c0.29,19.66 0.16,21.74 -1.5,23.67c-1.98,2.31 -15.53,8.25 -29.82,13.08c-11.98,4.04 -13.48,4.29 -17.05,2.76Zm23.63,-18.65c1.98,-1.98 2.07,-2.97 1.75,-18.25c-0.29,-14.12 -0.59,-16.61 -2.38,-19.67c-1.77,-3.02 -2.64,-3.54 -6.32,-3.81c-7.02,-0.51 -7.13,-0.22 -7.13,19.48c0,21.81 0.81,24.06 8.75,24.25c2.04,0.05 4.03,-0.7 5.33,-2Zm-7.61,-63.2c2.18,-1.24 4.94,-3.68 6.12,-5.43c4.73,-7.02 4.05,-30.16 -0.99,-33.52c-2.19,-1.47 -7.01,-0.74 -9.29,1.4c-2.25,2.12 -2.31,2.65 -2.31,20.34c0,9.99 0.3,18.46 0.67,18.82c0.98,0.98 1.45,0.85 5.8,-1.61Zm-217.9,79.21c-1.92,-1.69 -4.75,-5.62 -6.28,-8.75l-2.79,-5.68l-0.28,-52.57c-0.33,-61.31 -1.46,-55.56 11.97,-60.9c12.11,-4.81 30.66,-11.03 32.91,-11.03c2.85,0 10.71,7.69 13.51,13.21l2.43,4.8l0.05,53.06c0.04,42.54 -0.21,53.37 -1.27,54.65c-1.65,2 -7.56,4.63 -25.08,11.16c-16.43,6.11 -20.19,6.42 -25.17,2.05Zm26.03,-14.7c3.18,-2.12 3.4,-5.3 3.39,-49.91c0,-46.15 -0.34,-50.67 -4.05,-54.38c-2.22,-2.22 -7.68,-2.58 -10.28,-0.68c-1.59,1.16 -1.69,4.97 -1.44,51.59l0.28,50.33l2.36,1.91c2.36,1.91 7.66,2.53 9.74,1.14Zm-292.71,-166.42c-3.94,-3.21 -2.56,-8 4.21,-14.59c5.5,-5.35 12.4,-8.8 21.41,-10.69c6.67,-1.39 7.43,-1.35 17.98,1.1c14.59,3.39 19.46,2.95 32.24,-2.94c13.82,-6.36 16.63,-7.11 26.77,-7.14c7.36,-0.03 9.96,0.4 14.26,2.34c6.94,3.12 7.8,5.91 3.27,10.58c-3.59,3.7 -7.37,4.95 -20.03,6.61c-11.47,1.5 -18.71,3.4 -28.59,7.49c-9.27,3.83 -13.08,4.16 -21.13,1.82c-5.36,-1.55 -5.6,-1.54 -8.15,0.51c-4.5,3.62 -6.67,4.13 -12.58,2.94c-4.63,-0.93 -6.21,-0.83 -10.26,0.67c-6.28,2.32 -17.24,3.06 -19.4,1.3Zm174.87,-3.84c-18.52,-3.12 -38.58,-15.55 -44.17,-27.37c-1.37,-2.9 -3.08,-5.74 -3.79,-6.3c-0.72,-0.56 -5.51,-2.05 -10.66,-3.3c-12.49,-3.04 -23.61,-8.62 -42.36,-21.26c-18.75,-12.65 -25.41,-15.32 -35.62,-14.3c-13.68,1.37 -14.43,1.3 -16.02,-1.51c-0.9,-1.6 -1.19,-3.59 -0.77,-5.27c1.05,-4.18 7.09,-10.17 12.89,-12.79c4.51,-2.04 6.71,-2.36 15.74,-2.28c18.29,0.17 28.92,5.36 51.17,24.99c17.48,15.42 18.7,15.92 37.22,15.08c7.21,-0.33 15.54,-0.9 18.5,-1.27l5.4,-0.67l-0.69,2.89c-3.51,14.8 -0.34,22.54 11.39,27.81c9.74,4.37 20.08,6.09 27.96,4.66c11.17,-2.02 20.22,-5.08 28.81,-9.73l8.27,-4.47l2.98,2.13c3.97,2.83 4.99,4.95 4.99,10.45c0,3.96 -0.54,5.18 -4.03,8.95c-4.67,5.07 -15.12,10.87 -23.52,13.06c-6.39,1.67 -34.83,1.99 -43.69,0.5Zm271.79,-8.54c-25.48,-5.04 -43.1,-10.43 -44.07,-13.49c-0.33,-1.06 -0.35,-2.34 -0.04,-2.85c0.82,-1.32 15.99,-4.71 30.06,-6.72l12,-1.71l9.01,3.62c4.95,2 14.55,5.22 21.33,7.17c10.68,3.08 13.74,3.55 22.99,3.54c5.87,0 12.47,-0.54 14.67,-1.21c2.2,-0.66 9.4,-1.19 16,-1.18c12.2,0.03 16.5,1.05 16.5,3.91c0,2.45 -3.99,4.24 -17.64,7.93l-13.14,3.56l-27.86,-0.1c-25,-0.09 -29.09,-0.35 -39.81,-2.47Zm-136.21,-0.91c-3.94,-0.71 -9.56,-2.08 -12.5,-3.03c-14.48,-4.68 -26.07,-17.12 -24.37,-26.17c0.68,-3.64 6.61,-10.32 9.16,-10.32c0.86,0 5.46,2.61 10.23,5.8c19.34,12.93 35.73,15.78 55.02,9.55c6.54,-2.11 13.38,-8.04 15.56,-13.49c1.43,-3.57 1.49,-4.85 0.43,-9c-0.68,-2.65 -0.91,-5.16 -0.5,-5.56c0.41,-0.41 5.4,0.48 11.09,1.98c12.23,3.21 29,3.81 35.15,1.24c1.94,-0.81 9.91,-5.84 17.71,-11.17c16.01,-10.95 22.73,-14.35 34.12,-17.3c19.84,-5.13 37.65,-0.63 43.59,11.01c2.52,4.94 2.49,8.01 -0.1,11.31c-2.47,3.13 -5.56,3.36 -10.12,0.73c-9.27,-5.34 -19.37,-3.19 -44.39,9.45c-22.05,11.15 -27.37,13.03 -43.42,15.41l-12.5,1.85l-2.99,3.84c-10.46,13.46 -24.26,21.32 -42.65,24.3c-8.61,1.4 -29.74,1.16 -38.52,-0.43Zm-133.97,-35.01c-1.03,-2.67 1.8,-11.57 5.01,-15.78c5.78,-7.59 38.77,-28.58 56.29,-35.82c12.32,-5.1 13.29,-5.94 10.21,-8.81c-1.27,-1.18 -4.49,-2.8 -7.15,-3.59c-8.44,-2.51 -14.6,-0.13 -25.92,10.02c-7.1,6.35 -24.96,19.07 -35.57,25.33c-9.66,5.69 -22.91,8.04 -34.74,6.15c-7.07,-1.12 -10.77,-3.16 -8.96,-4.92c0.53,-0.51 11.76,-6.36 24.96,-12.99c13.2,-6.64 35.25,-17.92 49,-25.07c13.75,-7.15 25.7,-13 26.56,-13.01c1.89,-0.02 34.89,24.68 35.66,26.7c0.8,2.09 -0.9,3.33 -14.22,10.33c-6.6,3.47 -21.23,11.48 -32.5,17.79c-33.7,18.86 -45.42,25.16 -46.77,25.16c-0.71,0 -1.55,-0.67 -1.86,-1.49Zm138.59,-27.15c-15.1,-10.85 -32.63,-23.34 -38.96,-27.77c-13.01,-9.09 -44.95,-33.01 -55.5,-41.54c-42.74,-34.6 -77.17,-63.29 -80.5,-67.08c-0.27,-0.31 -7.7,-6.82 -16.5,-14.47c-36.74,-31.93 -84.81,-76.74 -112.23,-104.61c-19.19,-19.5 -26.83,-31.48 -34.06,-53.39c-5.57,-16.89 -6.68,-24.26 -6.64,-44c0.05,-26.38 1.63,-31.69 7.28,-24.4c4.2,5.42 37.65,45.39 47.59,56.86c48.38,55.84 106.7,114.8 176.45,178.39c19.25,17.55 43.51,36.65 72.61,57.16c7.7,5.43 27.73,19.6 44.5,31.49c31.26,22.17 50.4,35.55 64.49,45.1c4.39,2.98 8.15,6.27 8.35,7.31c0.35,1.8 -0.16,1.87 -9.49,1.26c-21.48,-1.4 -34.35,-6.98 -53.35,-23.14c-47,-39.98 -48.35,-41.01 -68.77,-52.53c-11.89,-6.7 -18.48,-11.78 -51.96,-40.02c-20.08,-16.94 -31.64,-26.26 -45.27,-36.5c-7.61,-5.72 -15.84,-12.84 -41.39,-35.84c-10.3,-9.27 -18.96,-16.62 -19.25,-16.34c-1.22,1.23 2.7,5.46 24.32,26.22c24.58,23.6 34.84,33.8 45.82,45.55c4.46,4.77 10.82,10 17.5,14.38c7.21,4.73 14.89,11.15 24.5,20.48c13.66,13.26 20.55,18.46 42.5,32.1c10.29,6.4 18.42,12.69 31,24.02c15.93,14.33 22.02,19.18 34.05,27.09c6.35,4.17 13.43,9.73 15.73,12.35c7.98,9.07 11.6,20.6 6.68,21.3c-1.33,0.19 -11.47,-6.49 -29.5,-19.43Zm-2.17,-60.67c-3.25,-2.65 -5.29,-5.1 -5.29,-6.35c0,-1.54 8.04,-7.8 32.5,-25.31c35.65,-25.52 37.41,-26.87 50.5,-38.59c4.95,-4.43 16.88,-14.37 26.5,-22.08c20.94,-16.79 34,-28.32 51.73,-45.73c7.28,-7.15 13.76,-13.31 14.4,-13.71c0.64,-0.39 6.26,-5.8 12.5,-12c11.11,-11.06 14.07,-15.2 6.62,-9.27c-6.24,4.98 -34.48,26.44 -43.39,32.98c-4.6,3.38 -12.93,10.47 -18.52,15.77c-21.77,20.64 -37.7,33.66 -57.56,47.02c-7.85,5.29 -17.43,12.35 -21.28,15.71c-3.85,3.35 -12.17,9.57 -18.5,13.81c-6.33,4.25 -15.72,10.95 -20.87,14.9c-10.14,7.76 -25.07,17.16 -27.27,17.16c-2.47,0 -12.86,-8.07 -12.86,-10c0,-1.24 5.22,-5.44 16.25,-13.07c39.35,-27.2 84.59,-62.8 126.25,-99.33c30.64,-26.88 39.9,-35.64 78.23,-74.1c39.04,-39.16 52.27,-53.34 80.22,-86c8.95,-10.45 16.89,-19.15 17.66,-19.32c2.36,-0.55 3.44,4.58 4.06,19.23c1.43,33.96 -7.46,60.89 -31.21,94.59c-5.59,7.94 -18.07,21.79 -28,31.08c-5.98,5.6 -33.34,28.04 -66.96,54.92c-9.9,7.92 -22.95,18.49 -29,23.51c-54.48,45.14 -124.54,98.49 -129.35,98.49c-1.14,0 -4.45,-1.94 -7.36,-4.31Zm-39.54,-72.57c-2.89,-1 -6.04,-2.48 -7,-3.29c-9.53,-8.06 -32.91,-26.71 -51.25,-40.87c-12.38,-9.55 -26.55,-20.75 -31.5,-24.89c-22.82,-19.09 -48.12,-47.08 -53.94,-59.66c-6.68,-14.47 -11.55,-31.2 -15.12,-52c-2.54,-14.78 -2.73,-17.9 -2.71,-43.91c0.03,-38.46 2.65,-56.45 11.6,-79.61c5.54,-14.34 8.51,-19.85 16.32,-30.26c20.65,-27.5 58.32,-50.87 95.51,-59.25c31.48,-7.1 58.14,-7.04 90.47,0.18c46.23,10.33 85.71,36.62 105.77,70.46c13.16,22.19 17.76,40.25 19.73,77.48c1.62,30.72 0.25,56.01 -4.05,74.74c-4.09,17.82 -15.11,43 -24.63,56.26c-8.9,12.4 -14.57,18.56 -33.45,36.33c-31.98,30.09 -46.98,42.43 -80.5,66.23c-20.03,14.22 -24.54,15.76 -35.25,12.06Zm23.6,-63.01c0.74,-0.47 1.19,-1.7 0.99,-2.73c-0.3,-1.57 -1.59,-1.98 -7.85,-2.5c-14.71,-1.22 -23.65,-0.99 -24.99,0.62c-0.98,1.18 -0.99,1.81 -0.03,2.97c0.9,1.08 4.03,1.55 11.88,1.78c5.86,0.18 12.45,0.41 14.65,0.52c2.2,0.11 4.61,-0.19 5.35,-0.66Zm-11.35,-34.19c0,-1.75 -0.55,-2.42 -1.99,-2.42c-2.34,0 -3.34,3.36 -1.36,4.61c2.07,1.31 3.35,0.47 3.35,-2.19Zm-7.5,-0.42c0,-1.81 -0.54,-2.5 -1.94,-2.5c-1.07,0 -2.23,0.47 -2.59,1.05c-1.07,1.73 0.33,3.95 2.5,3.95c1.5,0 2.03,-0.65 2.03,-2.5Zm-17.54,-38.43c0.89,-1.44 -6.24,-21.6 -10.98,-31.07c-5.12,-10.21 -11.53,-19.12 -20.4,-28.35c-24.61,-25.63 -55.3,-38.38 -90.08,-37.46c-11,0.3 -11.51,0.41 -11.81,2.52c-0.43,3 6.13,19.14 11.06,27.23c9.87,16.17 25.32,32.67 40.26,43.01c15.7,10.84 37.25,19.72 55.96,23.05c10.99,1.96 25.08,2.54 25.99,1.07Zm65.54,-0.61c14.31,-2.31 28.16,-6.79 41.5,-13.43c29.32,-14.58 52.65,-39.65 65.32,-70.21c4.59,-11.08 4.85,-10.54 -5.82,-12.35c-4.57,-0.77 -28.05,1.99 -38.08,4.49c-31.18,7.76 -60.66,31.87 -75.32,61.6c-4.47,9.07 -10.6,25.69 -10.6,28.75c0,0.84 0.56,1.75 1.25,2.03c2.52,1.02 12.5,0.61 21.75,-0.88Zm-304.26,-287.05c-1.48,-1.48 -0.67,-3.54 2.71,-6.92c1.89,-1.9 3.92,-5.15 4.49,-7.22c0.67,-2.4 1.05,-22.41 1.05,-55c0.01,-55.69 -0.13,-57.16 -5.57,-60.73c-4.36,-2.86 -3.09,-4.91 6.46,-10.42c11.36,-6.55 13.61,-6.62 19.42,-0.56l4.37,4.56l10.02,-5.2c11.76,-6.12 13.09,-6.08 20.25,0.62c2.62,2.45 5.13,4.46 5.58,4.46c0.45,0 5.72,-2.28 11.71,-5.06c12.75,-5.93 14.44,-5.9 20.56,0.35c7.4,7.57 7.2,5.93 7.27,59.43c0.03,26.28 0.42,49.98 0.86,52.66c0.65,3.96 1.54,5.51 4.67,8.13c3.37,2.83 3.69,3.45 2.5,4.88c-2.38,2.87 -16.07,10.86 -18.61,10.86c-3.36,0 -7.09,-2.64 -9.21,-6.51c-1.61,-2.94 -1.82,-7.88 -2.27,-53.74c-0.44,-44.35 -0.7,-50.95 -2.17,-54.18c-1.89,-4.17 -6.59,-7.1 -10.65,-6.63l-2.68,0.31l0,100.7l3.85,3.24c2.51,2.1 3.73,3.89 3.5,5.11c-0.5,2.58 -15.48,11.37 -19.47,11.41c-3.82,0.05 -7.6,-2.79 -9.75,-7.33c-1.43,-3.02 -1.63,-9.23 -1.65,-51.78c-0.02,-26.59 -0.43,-50.08 -0.92,-52.2c-1.55,-6.69 -8.75,-11.79 -13.35,-9.45c-1.68,0.86 -1.76,3.78 -1.5,51.37l0.29,50.46l3.25,3.03c1.79,1.67 3.25,3.55 3.25,4.16c0,2.57 -4,5.02 -17.62,10.76c-14.95,6.31 -19.38,7.69 -20.64,6.43Zm117.93,-0.08c-1.45,-1.44 -0.54,-4.18 1.91,-5.79c1.42,-0.93 3.44,-3.57 4.48,-5.87c1.79,-3.93 1.9,-7.35 1.92,-58.85c0.01,-33.14 0.41,-55.7 1,-57.26c1.18,-3.1 2.77,-3.85 24.86,-11.64c19.01,-6.7 21.52,-6.92 26.45,-2.35c1.53,1.41 4,4.45 5.49,6.75l2.72,4.18l0.31,25.97c0.19,15.47 0.72,26.47 1.32,27.19c0.56,0.67 2.32,1.5 3.93,1.85c1.6,0.36 3.17,1.05 3.47,1.55c0.82,1.32 -1.37,4.94 -2.99,4.94c-0.77,0 -2.33,1.19 -3.47,2.63c-1.9,2.42 -2.07,3.97 -2.07,18.64c0,18.56 0.92,22.8 5.73,26.48c5.06,3.85 4.15,5.86 -5.23,11.43c-9.33,5.54 -12.77,5.98 -16.87,2.18c-5.24,-4.86 -5.63,-7.16 -5.63,-33.27c0,-18.09 -0.31,-24.16 -1.25,-24.76c-2.19,-1.37 -12.85,-0.79 -13.83,0.76c-1.13,1.79 -1.11,31.95 0.02,37.85c0.58,3 1.7,5.05 3.46,6.33c1.59,1.16 2.6,2.86 2.6,4.38c0,2.74 -4.38,5.1 -24.65,13.26c-10.17,4.1 -12.44,4.67 -13.68,3.42Zm42.81,-75.75l4.02,-1.17l0,-46.59l-2.81,-2.41c-3.42,-2.94 -7.98,-3.12 -10.69,-0.41c-1.89,1.89 -2,3.33 -2,26.83c0,13.66 0.32,25.15 0.7,25.54c0.73,0.73 3.9,0.2 10.78,-1.79Zm36.63,75.05c-0.9,-1.08 -0.28,-2.42 2.83,-6.18c2.58,-3.12 4.34,-6.51 5.02,-9.68c0.64,-3 1.04,-23.21 1.04,-52.66c0,-52.81 -0.18,-54.61 -6.1,-60.72c-3.99,-4.11 -3.64,-4.63 7.29,-10.82c10.49,-5.94 12.87,-5.94 18.3,-0.02l4.18,4.55l10.42,-5.1c7.58,-3.7 11.09,-4.92 12.91,-4.47c3.53,0.87 7.74,5.13 10.84,10.97l2.66,5l0.5,51.6c0.55,56.24 0.1,52.22 6.49,58.01c2.85,2.58 2.91,2.79 1.26,4.61c-2.93,3.24 -16.89,10.7 -19.6,10.48c-1.39,-0.11 -3.61,-1.22 -4.94,-2.45c-5.27,-4.93 -5.21,-4.31 -5.24,-52.95c-0.04,-47.94 -0.62,-57.5 -3.74,-61.71c-2.32,-3.14 -7.98,-5.27 -10.48,-3.95c-1.63,0.87 -1.75,4.34 -1.75,51.2l0,50.27l3.5,3.39c3.95,3.83 4.25,5.05 1.75,7.18c-2.68,2.3 -32.11,14.82 -34.82,14.82c-0.65,0 -1.7,-0.62 -2.32,-1.37Zm157.5,-0.2c-0.49,-1.27 0.45,-2.94 3.27,-5.86c2.23,-2.3 4.41,-5.81 5.03,-8.07c0.71,-2.64 1.08,-22.62 1.08,-58.76c0.01,-53.73 0.05,-54.79 2.03,-56.5c2.59,-2.23 39.53,-15.17 43.41,-15.21c2.22,-0.02 4.01,1.11 7.39,4.72c8.49,9.04 8.17,7.64 8.19,35.75c0.01,13.75 0.44,25.67 0.96,26.48c0.51,0.81 2.39,1.97 4.17,2.57c3.65,1.23 4.59,2.76 2.66,4.34c-0.71,0.58 -2.65,2.16 -4.3,3.5l-3,2.44l0,39.4l4.25,3.77c2.34,2.07 4.25,4.48 4.25,5.35c0,0.94 -3.91,3.89 -9.64,7.26c-11.22,6.6 -12.72,6.56 -18.07,-0.45l-3.29,-4.32l-0.02,-24.67c0,-13.57 -0.43,-25.34 -0.95,-26.15c-1.33,-2.1 -13.7,-2.12 -15.11,-0.02c-1.14,1.69 -0.63,37.05 0.59,40.79c0.41,1.26 2.06,2.97 3.68,3.81c2.31,1.19 2.87,2.08 2.62,4.21c-0.28,2.45 -1.71,3.29 -16.31,9.53c-18.2,7.78 -21.86,8.76 -22.89,6.09Zm40.8,-73.91c3.25,-0.78 6.3,-2 6.77,-2.72c0.48,-0.71 0.75,-10.75 0.59,-22.3c-0.23,-17.71 -0.54,-21.5 -2.01,-24.18c-2.03,-3.71 -4.59,-4.76 -9.39,-3.86c-2.45,0.46 -3.74,1.38 -4.42,3.16c-1.03,2.72 -1.34,47.2 -0.34,49.8c0.73,1.9 1.24,1.9 8.8,0.1Zm-95.14,71.67c-0.68,-0.43 -3.51,-5.23 -6.3,-10.65c-2.79,-5.43 -6.17,-11.18 -7.52,-12.78c-2.92,-3.47 -2.98,-3.98 -0.7,-5.99c2.73,-2.41 15.97,-8.77 18.26,-8.77c1.63,0 3.18,2.32 7.48,11.17c6.36,13.08 7.72,14.47 10.94,11.26c1.34,-1.34 1.57,-5.08 1.57,-25.44c0,-30.47 0.84,-29.39 -17.17,-22.1c-12.09,4.9 -15.15,3.99 -18.97,-5.65c-2.08,-5.25 -2.31,-7.67 -2.64,-28.24c-0.23,-14.03 0.02,-23.52 0.67,-25.21c0.57,-1.5 2.96,-3.94 5.32,-5.45c6.03,-3.84 31.7,-14.46 35.19,-14.57c3.29,-0.09 4.15,0.85 9.32,10.23c1.97,3.57 4.92,7.92 6.55,9.66c1.62,1.74 2.66,3.65 2.29,4.24c-1.18,1.92 -14.56,9.23 -17.87,9.76c-3.77,0.61 -5.33,-0.84 -8.23,-7.66c-3.56,-8.37 -5.56,-11.13 -7.84,-10.8c-2.08,0.29 -2.12,0.71 -2.39,24.08c-0.26,23.54 0.2,27.72 3.08,27.72c0.69,0 5.85,-2.02 11.47,-4.5c5.63,-2.47 11.35,-4.5 12.72,-4.5c3.18,0 6.12,2.95 8.85,8.85c1.99,4.3 2.17,6.55 2.46,30c0.35,27.87 0.43,27.42 -5.98,30.74c-3.72,1.92 -37.44,15.41 -38.48,15.39c-0.47,0 -1.4,-0.36 -2.08,-0.79Zm154.71,-3.44c-1.86,-1.26 -4.89,-5.1 -6.9,-8.75l-3.58,-6.5l-0.29,-52c-0.17,-28.6 -0.05,-53 0.26,-54.23c0.73,-2.9 2.46,-3.72 24.81,-11.69c12.75,-4.54 19.5,-6.48 21,-6.02c3.14,0.96 5.4,3.09 10.37,9.8l4.35,5.86l0,53.78c0,49.76 -0.13,53.93 -1.75,55.86c-2.04,2.44 -37.81,16.14 -42.12,16.14c-1.56,0 -4.33,-1.01 -6.15,-2.25Zm25.16,-16.66l2.36,-1.91l0,-46.84c0,-25.76 -0.35,-48.09 -0.78,-49.62c-1.15,-4.14 -4.24,-6.72 -8.03,-6.72c-7.17,0 -6.78,-3.14 -6.47,52.34l0.28,49.83l2.81,2.42c3.38,2.9 6.65,3.07 9.83,0.5Zm-72.64,-130.77c-1.1,-0.24 -5.8,-1.36 -10.43,-2.49c-9.09,-2.21 -15.66,-1.98 -19.72,0.68c-1.25,0.82 -3.19,1.49 -4.3,1.49c-2.52,0 -6.92,-6.4 -7.7,-11.23c-0.51,-3.16 -0.2,-3.78 3.22,-6.39c4.81,-3.66 9.62,-3.65 25.16,0.09l11.23,2.69l5.55,-2.54c3.05,-1.39 6.11,-2.32 6.8,-2.05c0.69,0.26 2.74,3.18 4.56,6.49c3.19,5.81 3.25,6.11 1.64,8.56c-2.77,4.23 -9.4,6.17 -16.01,4.7Z" style="fill-rule:nonzero;"/></g></g></svg>