<?xml version="1.0" encoding="UTF-8" standalone="no"?><!DOCTYPE svg PUBLIC "-//W3C//DTD SVG 1.1//EN" "http://www.w3.org/Graphics/SVG/1.1/DTD/svg11.dtd"><svg width="100%" height="100%" viewBox="0 0 600 493" version="1.1" xmlns="http://www.w3.org/2000/svg" xmlns:xlink="http://www.w3.org/1999/xlink" xml:space="preserve" xmlns:serif="http://www.serif.com/" style="fill-rule:evenodd;clip-rule:evenodd;stroke-linejoin:round;stroke-miterlimit:2;"><rect id="Prancheta2" x="0" y="-0" width="600" height="493" style="fill:none;"/><g><g><path d="M485.851,463.814c-25.48,-5.04 -43.1,-10.43 -44.07,-13.49c-0.33,-1.06 -0.35,-2.34 -0.04,-2.85c0.82,-1.32 15.99,-4.71 30.06,-6.72l12,-1.71l9.01,3.62c4.95,2 14.55,5.22 21.33,7.17c10.68,3.08 13.74,3.55 22.99,3.54c5.87,0 12.47,-0.54 14.67,-1.21c2.2,-0.66 9.4,-1.19 16,-1.18c12.2,0.03 16.5,1.05 16.5,3.91c0,2.45 -3.99,4.24 -17.64,7.93l-13.14,3.56l-27.86,-0.1c-25,-0.09 -29.09,-0.35 -39.81,-2.47Zm-136.21,-0.91c-3.94,-0.71 -9.56,-2.08 -12.5,-3.03c-14.48,-4.68 -26.07,-17.12 -24.37,-26.17c0.68,-3.64 6.61,-10.32 9.16,-10.32c0.86,0 5.46,2.61 10.23,5.8c19.34,12.93 35.73,15.78 55.02,9.55c6.54,-2.11 13.38,-8.04 15.56,-13.49c1.43,-3.57 1.49,-4.85 0.43,-9c-0.68,-2.65 -0.91,-5.16 -0.5,-5.56c0.41,-0.41 5.4,0.48 11.09,1.98c12.23,3.21 29,3.81 35.15,1.24c1.94,-0.81 9.91,-5.84 17.71,-11.17c16.01,-10.95 22.73,-14.35 34.12,-17.3c19.84,-5.13 37.65,-0.63 43.59,11.01c2.52,4.94 2.49,8.01 -0.1,11.31c-2.47,3.13 -5.56,3.36 -10.12,0.73c-9.27,-5.34 -19.37,-3.19 -44.39,9.45c-22.05,11.15 -27.37,13.03 -43.42,15.41l-12.5,1.85l-2.99,3.84c-10.46,13.46 -24.26,21.32 -42.65,24.3c-8.61,1.4 -29.74,1.16 -38.52,-0.43Zm4.62,-62.16c-15.1,-10.85 -32.63,-23.34 -38.96,-27.77c-13.01,-9.09 -44.95,-33.01 -55.5,-41.54c-42.74,-34.6 -77.17,-63.29 -80.5,-67.08c-0.27,-0.31 -7.7,-6.82 -16.5,-14.47c-36.74,-31.93 -84.81,-76.74 -112.23,-104.61c-19.19,-19.5 -26.83,-31.48 -34.06,-53.39c-5.57,-16.89 -6.68,-24.26 -6.64,-44c0.05,-26.38 1.63,-31.69 7.28,-24.4c4.2,5.42 37.65,45.39 47.59,56.86c48.38,55.84 106.7,114.8 176.45,178.39c19.25,17.55 43.51,36.65 72.61,57.16c7.7,5.43 94.9,67.04 108.99,76.59c4.39,2.98 8.15,6.27 8.35,7.31c0.35,1.8 -0.16,1.87 -9.49,1.26c-21.48,-1.4 -34.35,-6.98 -53.35,-23.14c-47,-39.98 -48.35,-41.01 -68.77,-52.53c-11.89,-6.7 -18.48,-11.78 -51.96,-40.02c-20.08,-16.94 -31.64,-26.26 -45.27,-36.5c-7.61,-5.72 -15.84,-12.84 -41.39,-35.84c-10.3,-9.27 -18.96,-16.62 -19.25,-16.34c-1.22,1.23 2.7,5.46 24.32,26.22c24.58,23.6 34.84,33.8 45.82,45.55c4.46,4.77 10.82,10 17.5,14.38c7.21,4.73 14.89,11.15 24.5,20.48c13.66,13.26 20.55,18.46 42.5,32.1c10.29,6.4 18.42,12.69 31,24.02c15.93,14.33 22.02,19.18 34.05,27.09c6.35,4.17 13.43,9.73 15.73,12.35c7.98,9.07 11.6,20.6 6.68,21.3c-1.33,0.19 -11.47,-6.49 -29.5,-19.43Z" style="fill-rule:nonzero;"/></g></g></svg>